<?xml version="1.0" encoding="utf-8"?>
<!-- Generator: Adobe Illustrator 16.0.0, SVG Export Plug-In . SVG Version: 6.00 Build 0)  -->
<!DOCTYPE svg PUBLIC "-//W3C//DTD SVG 1.1//EN" "http://www.w3.org/Graphics/SVG/1.1/DTD/svg11.dtd">
<svg version="1.1" id="Réteg_1" xmlns="http://www.w3.org/2000/svg" xmlns:xlink="http://www.w3.org/1999/xlink" x="0px" y="0px"
	 width="35px" height="35px" viewBox="7.5 7.5 35 35" enable-background="new 7.5 7.5 35 35" xml:space="preserve">
<g>
	<path fill="#FFFFFF" d="M23.191,26.781v5.686l2.891,0.022l-0.012-5.725l1.785-0.012l0.498-2.467h-2.285v-1.822
		c0-0.246,0.1-0.685,0.502-0.685l1.332,0.022l-0.045-2.468l-2.635-0.011c-0.902,0-2.029,1.141-2.029,2.305l-0.022,2.646l-1.77,0.033
		v2.466L23.191,26.781z"/>
	<path fill="none" stroke="#FFFFFF" stroke-width="0.711" stroke-miterlimit="10" d="M25,9c8.954,0,16.212,7.164,16.212,16
		c0,8.836-7.258,16-16.212,16c-8.955,0-16.213-7.164-16.213-16C8.787,16.163,16.045,9,25,9z"/>
</g>
</svg>
