<?xml version="1.0" encoding="utf-8"?>
<!-- Generator: Adobe Illustrator 16.0.0, SVG Export Plug-In . SVG Version: 6.00 Build 0)  -->
<!DOCTYPE svg PUBLIC "-//W3C//DTD SVG 1.1//EN" "http://www.w3.org/Graphics/SVG/1.1/DTD/svg11.dtd">
<svg version="1.1" id="Réteg_1" xmlns="http://www.w3.org/2000/svg" xmlns:xlink="http://www.w3.org/1999/xlink" x="0px" y="0px"
	 width="35px" height="35px" viewBox="7.5 7.5 35 35" enable-background="new 7.5 7.5 35 35" xml:space="preserve">
<g>
	<path fill="#FFFFFF" d="M32.8,21.138h-2.114l0.003-2.108h-0.722v2.119h-2.136v0.688h2.136v2.098l0.71,0.02l-0.001-2.117h2.125
		L32.8,21.138L32.8,21.138z"/>
	<path fill="#FFFFFF" d="M25.273,26.362c-0.384-0.265-1.117-0.906-1.117-1.284c0-0.442,0.131-0.66,0.815-1.18
		c0.702-0.533,1.198-1.283,1.198-2.156c0-1.038-0.476-2.05-1.367-2.383h1.346l0.556-0.231c0,0-2.789-0.437-3.849-0.437
		c-1.902,0-3.692,1.401-3.692,3.025c0,1.66,1.296,2.998,3.231,2.998c0.134,0,0.265-0.002,0.393-0.011
		c-0.125,0.233-0.215,0.498-0.215,0.771c0,0.461,0.255,0.835,0.578,1.14c-0.243,0-0.479,0.008-0.735,0.008
		c-2.356,0-4.169,1.459-4.169,2.972c0,1.49,1.988,2.423,4.344,2.423c2.686,0,4.169-1.482,4.169-2.972
		C26.758,27.851,26.396,27.134,25.273,26.362L25.273,26.362z M23.007,24.294L23.007,24.294c-1.093-0.032-2.132-1.19-2.321-2.586
		c-0.189-1.396,0.544-2.465,1.637-2.434c1.092,0.032,2.132,1.152,2.32,2.549C24.832,23.22,24.098,24.326,23.007,24.294z
		 M22.578,31.357L22.578,31.357c-1.627,0-2.804-1.003-2.804-2.207c0-1.181,1.459-2.163,3.087-2.146
		c0.38,0.004,0.734,0.063,1.055,0.164c0.884,0.598,1.519,0.936,1.698,1.618c0.033,0.138,0.052,0.28,0.052,0.425
		C25.666,30.416,24.869,31.357,22.578,31.357z"/>
	<path fill="none" stroke="#FFFFFF" stroke-width="0.7017" stroke-miterlimit="10" d="M25,9.21c8.837,0,16,7.07,16,15.79
		c0,8.72-7.163,15.79-16,15.79S9,33.72,9,25C9,16.279,16.163,9.21,25,9.21z"/>
</g>
</svg>
