<?xml version="1.0" encoding="utf-8"?>
<!-- Generator: Adobe Illustrator 16.0.0, SVG Export Plug-In . SVG Version: 6.00 Build 0)  -->
<!DOCTYPE svg PUBLIC "-//W3C//DTD SVG 1.1//EN" "http://www.w3.org/Graphics/SVG/1.1/DTD/svg11.dtd">
<svg version="1.1" id="Réteg_1" xmlns="http://www.w3.org/2000/svg" xmlns:xlink="http://www.w3.org/1999/xlink" x="0px" y="0px"
	 width="32px" height="32px" viewBox="0 0 32 32" enable-background="new 0 0 32 32" xml:space="preserve">
<path fill="#FFFFFF" d="M16,19.268c1.819,0,3.296-1.476,3.296-3.296c0-0.548-0.135-1.065-0.371-1.521
	c-0.068-0.13-0.145-0.256-0.229-0.375c-0.002-0.003-0.005-0.006-0.007-0.009c-0.06-0.085-0.125-0.168-0.193-0.247
	c-0.005-0.006-0.009-0.011-0.015-0.016c-0.065-0.076-0.135-0.148-0.207-0.219c-0.008-0.006-0.016-0.014-0.023-0.021
	c-0.021-0.021-0.045-0.042-0.067-0.062c-0.009-0.008-0.018-0.016-0.026-0.022c-0.04-0.036-0.082-0.069-0.123-0.103
	c-0.012-0.009-0.023-0.018-0.035-0.026c-0.021-0.017-0.043-0.033-0.064-0.049c-0.015-0.011-0.03-0.021-0.045-0.032
	c-0.027-0.02-0.055-0.038-0.083-0.057c-0.025-0.017-0.052-0.033-0.077-0.05c-0.021-0.013-0.04-0.023-0.061-0.035
	c-0.02-0.012-0.041-0.024-0.062-0.035c-0.019-0.012-0.038-0.021-0.058-0.032c-0.036-0.02-0.072-0.038-0.109-0.057
	c-0.016-0.007-0.032-0.015-0.047-0.022c-0.029-0.012-0.055-0.024-0.082-0.036c-0.018-0.008-0.035-0.015-0.053-0.022
	c-0.033-0.014-0.068-0.027-0.102-0.04c-0.014-0.005-0.028-0.011-0.042-0.016c-0.038-0.014-0.076-0.026-0.114-0.038
	c-0.016-0.006-0.031-0.01-0.047-0.015c-0.035-0.011-0.068-0.021-0.104-0.03c-0.012-0.003-0.022-0.006-0.034-0.009
	c-0.046-0.012-0.092-0.022-0.137-0.032c-0.015-0.002-0.027-0.005-0.04-0.008c-0.038-0.007-0.075-0.014-0.112-0.02
	c-0.012-0.002-0.025-0.004-0.039-0.006c-0.047-0.008-0.095-0.014-0.144-0.019c-0.009-0.001-0.019-0.002-0.027-0.003
	c-0.04-0.004-0.083-0.007-0.124-0.009c-0.014-0.001-0.027-0.002-0.041-0.003c-0.051-0.002-0.102-0.003-0.151-0.003
	c-0.051,0-0.102,0.001-0.151,0.003c-0.014,0.001-0.027,0.002-0.041,0.003c-0.041,0.002-0.083,0.005-0.125,0.009
	c-0.009,0.001-0.018,0.002-0.026,0.003c-0.048,0.005-0.097,0.011-0.146,0.019c-0.012,0.002-0.025,0.004-0.037,0.006
	c-0.039,0.006-0.075,0.013-0.111,0.02c-0.014,0.003-0.027,0.006-0.04,0.008c-0.046,0.01-0.093,0.021-0.138,0.032
	c-0.012,0.003-0.023,0.006-0.035,0.009c-0.034,0.01-0.068,0.02-0.104,0.03c-0.016,0.005-0.031,0.009-0.047,0.015
	c-0.039,0.012-0.076,0.024-0.115,0.038c-0.014,0.005-0.027,0.011-0.041,0.016c-0.035,0.013-0.068,0.026-0.102,0.04
	c-0.018,0.008-0.035,0.015-0.053,0.022c-0.027,0.012-0.055,0.024-0.081,0.037c-0.017,0.007-0.032,0.015-0.048,0.021
	c-0.037,0.019-0.074,0.037-0.109,0.057c-0.02,0.011-0.039,0.021-0.059,0.032c-0.02,0.011-0.041,0.023-0.061,0.035
	c-0.021,0.012-0.041,0.022-0.061,0.035c-0.025,0.017-0.053,0.033-0.078,0.05c-0.027,0.019-0.055,0.037-0.082,0.057
	c-0.016,0.011-0.03,0.021-0.045,0.032c-0.022,0.016-0.045,0.032-0.066,0.049c-0.012,0.009-0.022,0.018-0.033,0.026
	c-0.042,0.033-0.083,0.066-0.124,0.103c-0.009,0.007-0.018,0.015-0.025,0.022c-0.023,0.02-0.046,0.041-0.068,0.062
	c-0.008,0.007-0.015,0.015-0.022,0.021c-0.072,0.07-0.143,0.143-0.208,0.219c-0.005,0.005-0.009,0.01-0.013,0.016
	c-0.069,0.079-0.134,0.162-0.195,0.247c-0.002,0.003-0.004,0.006-0.006,0.009c-0.084,0.119-0.16,0.245-0.229,0.375
	c-0.236,0.455-0.371,0.973-0.371,1.521C12.704,17.792,14.18,19.268,16,19.268z"/>
<circle fill="#FFFFFF" cx="16" cy="16" r="16"/>
<path fill="#C1B49A" d="M7.946,9.678c0-0.956,0.775-1.731,1.731-1.731h12.644c0.957,0,1.732,0.775,1.732,1.731v12.645
	c0,0.956-0.775,1.731-1.732,1.731H9.678c-0.956,0-1.731-0.775-1.731-1.731V9.678z"/>
<path fill="#FFFFFF" d="M10.841,22.191h10.318c0.569,0,1.031-0.462,1.031-1.032v-6.707h-1.409c0.152,0.479,0.235,0.989,0.235,1.52
	c0,2.77-2.246,5.016-5.017,5.016s-5.016-2.246-5.016-5.016c0-0.53,0.081-1.04,0.233-1.52H9.809v6.707
	C9.809,21.729,10.271,22.191,10.841,22.191z"/>
</svg>
