<?xml version="1.0" encoding="utf-8"?>
<!-- Generator: Adobe Illustrator 16.0.0, SVG Export Plug-In . SVG Version: 6.00 Build 0)  -->
<!DOCTYPE svg PUBLIC "-//W3C//DTD SVG 1.1//EN" "http://www.w3.org/Graphics/SVG/1.1/DTD/svg11.dtd">
<svg version="1.1" id="Réteg_1" xmlns="http://www.w3.org/2000/svg" xmlns:xlink="http://www.w3.org/1999/xlink" x="0px" y="0px"
	 width="35px" height="35px" viewBox="7.5 7.5 35 35" enable-background="new 7.5 7.5 35 35" xml:space="preserve">
<g>
	<path fill="#FFFFFF" d="M28.84,30.966v-4.821c0-1.145-0.527-1.926-1.545-1.926c-0.773,0-1.297,0.526-1.502,1.035
		c-0.072,0.183-0.025,0.405-0.025,0.658v5.054h-2.56v-6.063c0-1.11-0.362-2.338-0.512-2.527h2.56v1.011l0.127,0.014
		c0.368-0.631,1.274-1.426,2.788-1.426c1.845,0,3.229,1.228,3.229,3.844v5.148H28.84z M18.6,22.375h3.072v8.59H18.6V22.375z
		 M20.087,21.093c-0.884,0-1.458-0.618-1.458-1.381c0-0.781,0.592-1.38,1.496-1.38c0.902,0,1.456,0.599,1.475,1.38
		C21.6,20.475,21.028,21.093,20.087,21.093z"/>
	<path fill="none" stroke="#FFFFFF" stroke-width="0.7017" stroke-miterlimit="10" d="M25,9.21c8.837,0,16,7.07,16,15.79
		c0,8.72-7.163,15.79-16,15.79S9,33.72,9,25C9,16.279,16.163,9.21,25,9.21z"/>
</g>
</svg>
