<?xml version="1.0" encoding="utf-8"?>
<!-- Generator: Adobe Illustrator 16.0.0, SVG Export Plug-In . SVG Version: 6.00 Build 0)  -->
<!DOCTYPE svg PUBLIC "-//W3C//DTD SVG 1.1//EN" "http://www.w3.org/Graphics/SVG/1.1/DTD/svg11.dtd">
<svg version="1.1" id="Réteg_1" xmlns="http://www.w3.org/2000/svg" xmlns:xlink="http://www.w3.org/1999/xlink" x="0px" y="0px"
	 width="718px" height="70px" viewBox="0 0 718 70" enable-background="new 0 0 718 70" xml:space="preserve">
<text transform="matrix(1 0 0 1 157.6519 51.7549)" fill="#28201D" font-family="'Didot'" font-size="60">Dekor &amp; Stílus</text>
<path fill-rule="evenodd" clip-rule="evenodd" fill="#28201D" d="M146.824,36.07c-0.133-0.266-0.466-0.752-0.729-0.582
	c-0.25,0.123,0.016,0.303,0.146,0.568c0.295,0.432,0.442,0.998,0.237,1.676c-0.543,1.795-3.378,2.711-7.25,2.348
	c-2.064-0.189-3.92-0.543-5.798-0.982c1.267-7.839-7.103-13.73-16.536-13.796c-0.018,0-0.035,0-0.052-0.002
	c-2.951-0.045-6.44,0.51-9.538,1.743c-0.043-0.673-0.127-1.342-0.267-2.012c-0.005-0.013-0.006-0.03-0.01-0.041
	c-1.771-8.433-9.99-10.609-19.754-9.416c32.935-8.064,52.499,2.001,57.104,4.814c-17.7-11.437-37.752-10.819-53.974-6.983
	C112.25,7,126.31,8.588,129.956,9.191c-24.179-4.507-49.061,5.212-63.788,12.759c-4.875,2.112-9.394,4.351-13.821,6.652
	c-8.388-1.733-21.275-0.696-31.168,1.231C12.225,31.716-0.105,34.499,1.112,40.27c1.067,5.057,10.755,4.918,18.009,3.406
	c10.822-2.211,22.306-8.141,34.472-14.069c3.851,1.07,6.614,3.153,7.242,6.122c0.444,2.111-0.482,3.846-1.45,4.369
	c-0.307,0.182-0.606,0.193-0.58,0.314c0.033,0.162,0.243,0.139,0.682-0.043c1.184-0.504,2.28-2.471,1.792-4.787
	c-0.628-2.966-3.319-5.112-7.103-6.283c6.064-2.948,12.294-5.854,18.729-8.281c15.567-5.789,31.057-8,33.627,4.219
	c0.142,0.672,0.224,1.344,0.262,2.016c-3.4,1.46-6.245,3.764-7.233,7.028c-0.131,0.436-0.161,0.867-0.18,1.107
	c-3.001,1.541-5.417,3.902-6.299,6.805c-0.236,0.777-0.352,1.496-0.331,2.117c-0.695,0.08-1.338,0.16-2.018,0.195
	c-8.367,0.439-13.466-1.445-11.849-6.781c0.97-3.195,4.474-5.042,7.613-5.284c2.88-0.23,6.056,1.157,4.792,4.133
	c-0.326,0.73-0.513,0.836-0.423,0.881c0.13,0.086,0.411-0.166,0.773-0.854c1.426-2.839-1.327-5.12-4.834-4.846
	c-3.765,0.292-7.389,2.535-8.448,6.022c-1.631,5.377,3.534,8.389,11.692,7.953c0.995-0.051,1.885-0.094,2.84-0.186
	c0.075,0.318,0.183,0.627,0.314,0.92c-0.641,0.326-1.291,0.631-1.953,0.908c-8.993,3.865-20.321,3.988-22.013-4.033
	c-1.242-5.883,4.799-10.699,10.444-12.947c5.425-2.103,13.094-3.882,14.21,1.424c0.403,1.909-0.611,3.958-1.619,4.841
	c-1.154,0.988-1.763,0.938-1.719,1.141c0.042,0.203,0.997-0.115,1.865-0.85c1.084-0.916,2.362-3.127,1.909-5.283
	c-1.212-5.757-8.896-5.274-14.896-2.848c-6.172,2.588-12.002,8.394-10.675,14.689c1.741,8.26,13.349,8.418,22.731,4.387
	c0.668-0.283,1.328-0.594,1.979-0.924c2.126,3.654,8.67,5.293,15.214,5.391c10.061,0.068,21.704-3.053,24.375-11.854
	c0.075-0.242,0.149-0.486,0.22-0.725c1.856,0.336,3.754,0.543,5.87,0.74c4.389,0.412,7.11-0.656,7.743-2.742
	C147.081,37.15,147,36.541,146.824,36.07L146.824,36.07z M19.026,43.229c-7.161,1.537-16.521,1.592-17.492-3.014
	c-1.176-5.569,11.084-8.073,19.831-9.911c0.014-0.002,0.026-0.005,0.04-0.007c9.559-1.87,22.049-2.95,30.269-1.406
	C39.97,34.986,29.464,41.039,19.026,43.229L19.026,43.229z M100.029,34.265c0.926-3.05,3.57-5.103,6.787-6.367
	c0.018,1.866-0.343,3.717-1.02,5.508c-2.052,0.303-4.11,0.863-5.977,1.728C99.839,34.894,99.925,34.605,100.029,34.265
	L100.029,34.265z M101.764,39.918c-1.014-0.932-1.693-2.016-1.892-3.252c1.585-0.547,3.28-0.887,4.938-1.094
	C104,37.096,102.969,38.555,101.764,39.918L101.764,39.918z M101.788,40.67c0.736,0.592,1.599,1.119,2.563,1.574
	c-1.73,0.426-3.578,0.861-5.542,1.234C99.876,42.605,100.876,41.666,101.788,40.67L101.788,40.67z M93.115,44.293
	c0.034-0.621,0.082-1.293,0.303-2.018c0.003-0.016,0.01-0.031,0.017-0.049c0.792-2.613,3.104-4.301,5.855-5.348
	c0.253,1.313,1.003,2.467,2.101,3.455c-1.116,1.211-2.373,2.334-3.73,3.354C96.209,43.939,94.694,44.15,93.115,44.293L93.115,44.293
	z M93.376,45.475c0.717-0.082,1.412-0.178,2.095-0.283c-0.592,0.367-1.2,0.715-1.82,1.043C93.54,45.99,93.444,45.738,93.376,45.475
	L93.376,45.475z M132.716,40.234c-2.697,8.893-14.384,11.65-23.924,11.592c-0.016,0-0.034,0-0.052,0
	c-6.134-0.09-12.702-1.58-14.824-5.092c1.002-0.533,1.976-1.125,2.909-1.768c3.205-0.574,6.013-1.363,8.638-2.105
	c2.151,0.803,4.9,1.201,7.4,1.244c2.292,0.031,5.548-0.16,6.049-1.803c0.411-1.355-1.951-1.877-4.478-1.82
	c-2.842,0.049-5.878,0.76-9.242,1.563c-1.161-0.5-2.194-1.1-3.039-1.789c1.297-1.482,2.403-3.078,3.254-4.752
	c1.332-0.141,2.628-0.197,3.807-0.201c7.614-0.012,14.248,2.834,23.614,4.396C132.834,39.848,132.776,40.041,132.716,40.234
	L132.716,40.234z M106.282,42.566c3.082-0.885,5.885-1.688,8.098-1.746c2.306-0.008,4.375,0.453,4.08,1.418
	c-0.007,0.016-0.012,0.033-0.017,0.051c-0.35,1.16-3.245,1.365-5.279,1.336C110.874,43.584,108.319,43.23,106.282,42.566
	L106.282,42.566z M132.944,38.963c-8.764-1.971-15.818-5.866-23.435-5.836c-1.028,0.004-2.092,0.077-3.16,0.21
	c0.665-1.829,1.018-3.722,0.986-5.631c2.902-1.046,6.205-1.481,9.11-1.438c0.016,0.002,0.034,0,0.052,0
	C125.567,26.325,134.138,31.709,132.944,38.963L132.944,38.963z M144.378,20.388c0.705,0.428,1.059,0.69,1.059,0.69
	C145.086,20.838,144.731,20.618,144.378,20.388L144.378,20.388z M129.956,9.191c0.621,0.104,0.946,0.179,0.946,0.179
	C130.585,9.304,130.27,9.25,129.956,9.191z"/>
<path fill-rule="evenodd" clip-rule="evenodd" fill="#28201D" d="M574.188,36.686c-0.174,0.466-0.253,1.066-0.064,1.688
	c0.625,2.059,3.309,3.112,7.637,2.706c2.087-0.196,3.959-0.399,5.79-0.73c0.07,0.235,0.144,0.477,0.217,0.714
	c2.634,8.68,14.118,11.759,24.041,11.691c6.454-0.097,12.908-1.713,15.006-5.316c0.642,0.326,1.292,0.631,1.952,0.91
	c9.253,3.977,20.701,3.821,22.419-4.326c1.309-6.207-4.442-11.935-10.53-14.487c-5.918-2.393-13.495-2.869-14.691,2.808
	c-0.446,2.126,0.813,4.308,1.883,5.211c0.856,0.724,1.797,1.038,1.84,0.838s-0.558-0.15-1.695-1.126
	c-0.994-0.869-1.994-2.892-1.597-4.774c1.102-5.233,8.665-3.478,14.016-1.404c5.567,2.218,11.524,6.968,10.301,12.769
	c-1.67,7.912-12.842,7.791-21.711,3.979c-0.654-0.274-1.296-0.575-1.927-0.896c0.13-0.291,0.235-0.594,0.31-0.908
	c0.941,0.09,1.819,0.133,2.801,0.184c8.046,0.43,13.142-2.541,11.533-7.846c-1.044-3.438-4.62-5.65-8.333-5.938
	c-3.459-0.271-6.175,1.979-4.768,4.779c0.356,0.679,0.634,0.928,0.763,0.843c0.089-0.046-0.097-0.148-0.417-0.87
	c-1.246-2.935,1.886-4.303,4.727-4.076c3.097,0.238,6.553,2.061,7.508,5.211c1.596,5.263-3.434,7.123-11.686,6.688
	c-0.67-0.035-1.305-0.113-1.99-0.192c0.021-0.611-0.094-1.321-0.326-2.087c-0.87-2.863-3.252-5.193-6.213-6.712
	c-0.019-0.236-0.047-0.663-0.178-1.092c-0.975-3.22-3.78-5.492-7.134-6.932c0.038-0.663,0.119-1.325,0.259-1.989
	c2.535-12.051,17.813-9.87,33.166-4.161c6.347,2.394,12.491,5.26,18.472,8.167c-3.73,1.155-6.386,3.271-7.005,6.197
	c-0.48,2.285,0.601,4.225,1.769,4.721c0.433,0.18,0.639,0.203,0.672,0.043c0.026-0.119-0.27-0.131-0.572-0.311
	c-0.954-0.516-1.868-2.227-1.43-4.31c0.62-2.927,3.344-4.981,7.144-6.037c11.999,5.847,23.325,11.695,33.999,13.877
	c7.153,1.489,16.709,1.626,17.762-3.361c1.2-5.691-10.961-8.435-19.791-10.292c-9.757-1.901-22.469-2.923-30.742-1.214
	c-4.367-2.269-8.823-4.478-13.632-6.561c-14.524-7.444-39.065-17.03-62.913-12.584c3.595-0.594,17.463-2.162,39.009,4.156
	c-15.999-3.783-35.777-4.393-53.234,6.888c4.543-2.775,23.838-12.703,56.322-4.749c-9.631-1.176-17.736,0.97-19.484,9.287
	c-0.003,0.011-0.004,0.027-0.009,0.041c-0.139,0.661-0.221,1.321-0.264,1.984c-3.055-1.216-6.497-1.764-9.407-1.719
	c-0.017,0.002-0.033,0.002-0.051,0.002c-9.305,0.065-17.559,5.875-16.31,13.606c-1.853,0.434-3.683,0.782-5.719,0.969
	c-3.818,0.359-6.614-0.544-7.15-2.314c-0.202-0.67-0.058-1.227,0.233-1.653c0.129-0.261,0.392-0.438,0.145-0.56
	C574.647,35.944,574.318,36.426,574.188,36.686L574.188,36.686z M700.234,43.746c-10.294-2.16-20.656-8.129-32.199-14.14
	c8.106-1.523,20.426-0.458,29.854,1.387c0.013,0.002,0.024,0.004,0.038,0.007c8.627,1.813,20.719,4.283,19.56,9.774
	C716.529,45.316,707.297,45.263,700.234,43.746L700.234,43.746z M620.342,34.906c0.103,0.335,0.188,0.62,0.206,0.858
	c-1.84-0.854-3.87-1.406-5.895-1.705c-0.667-1.767-1.023-3.593-1.006-5.433C616.82,29.874,619.428,31.898,620.342,34.906
	L620.342,34.906z M618.631,40.481c-1.189-1.344-2.206-2.784-3.005-4.285c1.636,0.202,3.308,0.539,4.871,1.078
	C620.302,38.492,619.631,39.563,618.631,40.481L618.631,40.481z M618.606,41.223c0.899,0.982,1.886,1.91,2.938,2.77
	c-1.938-0.367-3.76-0.797-5.466-1.217C617.029,42.326,617.881,41.807,618.606,41.223L618.606,41.223z M627.161,44.797
	c-1.558-0.141-3.054-0.35-4.483-0.598c-1.34-1.006-2.579-2.113-3.68-3.307c1.082-0.975,1.822-2.114,2.07-3.408
	c2.715,1.033,4.994,2.695,5.775,5.273c0.008,0.018,0.015,0.033,0.018,0.049C627.08,43.521,627.127,44.184,627.161,44.797
	L627.161,44.797z M626.904,45.961c-0.068,0.262-0.162,0.51-0.271,0.751c-0.611-0.323-1.211-0.667-1.795-1.029
	C625.512,45.786,626.196,45.881,626.904,45.961L626.904,45.961z M588.103,40.793c-0.06-0.19-0.116-0.381-0.11-0.527
	c9.237-1.542,15.78-4.348,23.29-4.337c1.163,0.005,2.441,0.061,3.755,0.2c0.839,1.649,1.93,3.225,3.21,4.685
	c-0.833,0.681-1.853,1.272-2.997,1.767c-3.318-0.793-6.313-1.494-9.115-1.542c-2.493-0.056-4.822,0.458-4.417,1.796
	c0.495,1.619,3.705,1.809,5.966,1.777c2.466-0.043,5.178-0.435,7.299-1.227c2.589,0.732,5.359,1.509,8.521,2.076
	c0.92,0.633,1.88,1.217,2.868,1.743c-2.094,3.464-8.57,4.935-14.621,5.021c-0.018,0-0.035,0-0.051,0
	C602.29,52.284,590.763,49.563,588.103,40.793L588.103,40.793z M614.174,43.094c-2.009,0.654-4.528,1.003-6.787,1.043
	c-2.006,0.029-4.861-0.173-5.207-1.316c-0.004-0.018-0.009-0.034-0.016-0.05c-0.291-0.952,1.749-1.406,4.023-1.399
	C608.37,41.43,611.135,42.221,614.174,43.094L614.174,43.094z M587.878,39.539c-1.178-7.154,7.275-12.465,16.222-12.521
	c0.018,0,0.035,0.002,0.051,0c2.865-0.043,6.122,0.386,8.984,1.417c-0.03,1.883,0.317,3.75,0.973,5.555
	c-1.053-0.131-2.102-0.203-3.116-0.207C603.479,33.754,596.521,37.596,587.878,39.539L587.878,39.539z M576.6,21.219
	c-0.348,0.227-0.698,0.445-1.044,0.681C575.556,21.899,575.905,21.642,576.6,21.219L576.6,21.219z M589.892,10.352
	c0,0,0.321-0.074,0.934-0.176C590.516,10.233,590.204,10.287,589.892,10.352z"/>
</svg>
