<?xml version="1.0" encoding="utf-8"?>
<!-- Generator: Adobe Illustrator 16.0.0, SVG Export Plug-In . SVG Version: 6.00 Build 0)  -->
<!DOCTYPE svg PUBLIC "-//W3C//DTD SVG 1.1//EN" "http://www.w3.org/Graphics/SVG/1.1/DTD/svg11.dtd">
<svg version="1.1" id="Réteg_1" xmlns="http://www.w3.org/2000/svg" xmlns:xlink="http://www.w3.org/1999/xlink" x="0px" y="0px"
	 width="35px" height="35px" viewBox="-1.5 -1.5 35 35" enable-background="new -1.5 -1.5 35 35" xml:space="preserve">
<circle fill="none" stroke="#FFFFFF" stroke-miterlimit="10" cx="16" cy="16" r="16"/>
<path fill="#FFFFFF" d="M8.838,13.232c0,0,0.259-6.192,7.18-6.459c6.893-0.265,7.134,6.098,7.134,6.098s0.218,1.566-0.891,4.041
	c-1.109,2.473-3.207,3.197-4.828,3.229c-1.623,0.032-2.62-1.285-2.62-1.285l-0.595,2.33c-0.482,2.008-1.477,3.196-1.67,3.502
	c-0.193,0.306-0.451,0.563-0.563,0.547c-0.113-0.018-0.113-0.321-0.113-0.321s-0.128-1.769-0.111-2.41
	c0.016-0.644,0.256-1.67,0.256-1.67l1.287-5.607c-0.29-0.594-0.37-1.59-0.37-1.59c-0.081-1.479,0.947-2.732,2.056-2.764
	c1.109-0.032,1.397,0.818,1.463,1.478c0.063,0.659-0.418,2.346-0.853,3.47c-0.433,1.125,0.499,3.358,2.731,2.153
	c2.234-1.205,2.217-5.157,2.217-5.157c0-4.386-4.306-4.225-4.306-4.225c-4.466,0-5.333,3.742-5.333,5.012s0.715,2.186,0.715,2.186
	c0.232,0.273,0.12,0.675,0.12,0.675l-0.241,0.851c-0.088,0.311-0.57,0.113-0.57,0.113C8.597,16.221,8.838,13.232,8.838,13.232z"/>
</svg>
