<?xml version="1.0" encoding="utf-8"?>
<!-- Generator: Adobe Illustrator 16.0.0, SVG Export Plug-In . SVG Version: 6.00 Build 0)  -->
<!DOCTYPE svg PUBLIC "-//W3C//DTD SVG 1.1//EN" "http://www.w3.org/Graphics/SVG/1.1/DTD/svg11.dtd">
<svg version="1.1" id="Réteg_1" xmlns="http://www.w3.org/2000/svg" xmlns:xlink="http://www.w3.org/1999/xlink" x="0px" y="0px"
	 width="35px" height="35px" viewBox="7.498 7.5 35 35" enable-background="new 7.498 7.5 35 35" xml:space="preserve">
<g>
	<path fill="#FFFFFF" d="M32.298,20.803c-0.543,0.237-1.128,0.396-1.741,0.469c0.626-0.369,1.107-0.953,1.333-1.648
		c-0.586,0.341-1.234,0.589-1.926,0.723c-0.554-0.58-1.342-0.941-2.215-0.941c-1.675,0-3.033,1.334-3.033,2.979
		c0,0.234,0.028,0.46,0.079,0.68c-2.52-0.125-4.755-1.311-6.251-3.113c-0.261,0.44-0.41,0.951-0.41,1.497
		c0,1.034,0.536,1.946,1.349,2.479c-0.498-0.015-0.965-0.149-1.374-0.373c0,0.013,0,0.025,0,0.038c0,1.443,1.045,2.647,2.433,2.921
		c-0.254,0.068-0.522,0.105-0.799,0.105c-0.195,0-0.386-0.019-0.57-0.055c0.385,1.184,1.506,2.044,2.833,2.069
		c-1.038,0.799-2.346,1.274-3.768,1.274c-0.244,0-0.486-0.014-0.723-0.041c1.342,0.845,2.937,1.339,4.649,1.339
		c5.579,0,8.63-4.541,8.63-8.478c0-0.13-0.003-0.258-0.01-0.385C31.378,21.925,31.892,21.4,32.298,20.803L32.298,20.803z"/>
	<path fill="none" stroke="#FFFFFF" stroke-width="0.7017" stroke-miterlimit="10" d="M24.998,9.21c8.837,0,16,7.07,16,15.79
		c0,8.72-7.163,15.79-16,15.79s-16-7.07-16-15.79C8.998,16.279,16.161,9.21,24.998,9.21z"/>
</g>
</svg>
