<?xml version="1.0" encoding="utf-8"?>
<!-- Generator: Adobe Illustrator 16.0.0, SVG Export Plug-In . SVG Version: 6.00 Build 0)  -->
<!DOCTYPE svg PUBLIC "-//W3C//DTD SVG 1.1//EN" "http://www.w3.org/Graphics/SVG/1.1/DTD/svg11.dtd">
<svg version="1.1" id="Réteg_1" xmlns="http://www.w3.org/2000/svg" xmlns:xlink="http://www.w3.org/1999/xlink" x="0px" y="0px"
	 width="35px" height="35px" viewBox="7.5 7.5 35 35" enable-background="new 7.5 7.5 35 35" xml:space="preserve">
<g>
	<path fill="#FFFFFF" d="M31.606,31.197c0,1.073-0.894,1.944-1.994,1.944c-1.571,0.063-3.181,0.093-4.82,0.09
		c-1.64,0.003-3.248-0.026-4.82-0.09c-1.101,0-1.993-0.871-1.993-1.944c-0.066-0.851-0.096-1.7-0.092-2.551
		c-0.004-0.85,0.025-1.7,0.092-2.551c0-1.073,0.893-1.944,1.993-1.944c1.572-0.065,3.181-0.093,4.82-0.09
		c1.64-0.003,3.249,0.025,4.82,0.09c1.101,0,1.994,0.871,1.994,1.944c0.066,0.851,0.096,1.7,0.092,2.551
		C31.702,29.496,31.673,30.347,31.606,31.197z M21.853,25.483h-2.897v0.875h0.977v5.15h0.944v-5.15h0.977V25.483z M24.233,27.063
		h-0.839v3.375c-0.078,0.098-0.165,0.176-0.259,0.238c-0.095,0.062-0.173,0.093-0.233,0.093c-0.079,0-0.137-0.022-0.171-0.07
		c-0.035-0.047-0.053-0.123-0.053-0.229v-3.406h-0.838v3.715c0,0.265,0.049,0.463,0.147,0.596c0.098,0.133,0.243,0.198,0.438,0.198
		c0.157,0,0.319-0.047,0.485-0.142c0.168-0.096,0.329-0.233,0.483-0.414v0.491h0.838L24.233,27.063L24.233,27.063z M27.46,28.122
		c0-0.363-0.07-0.64-0.211-0.829c-0.139-0.19-0.342-0.285-0.606-0.285c-0.13,0-0.259,0.034-0.386,0.105
		c-0.127,0.07-0.247,0.173-0.359,0.309v-1.939h-0.846v6.025h0.846v-0.342c0.109,0.136,0.229,0.235,0.357,0.302
		c0.129,0.064,0.274,0.097,0.438,0.097c0.248,0,0.438-0.084,0.569-0.25c0.131-0.169,0.197-0.41,0.197-0.727V28.122z M30.557,29.919
		h-0.861v0.309c0,0.263-0.027,0.431-0.084,0.508c-0.056,0.076-0.152,0.115-0.291,0.115c-0.134,0-0.228-0.046-0.283-0.136
		c-0.057-0.091-0.082-0.253-0.082-0.487V29.39h1.604v-1.131c0-0.422-0.104-0.745-0.31-0.97c-0.206-0.226-0.501-0.338-0.885-0.338
		c-0.375,0-0.68,0.121-0.918,0.365c-0.236,0.243-0.354,0.557-0.354,0.943v1.995c0,0.428,0.108,0.763,0.323,1.007
		c0.215,0.245,0.511,0.367,0.885,0.367c0.418,0,0.732-0.115,0.942-0.345c0.209-0.23,0.314-0.573,0.314-1.029V29.919z M28.955,28.25
		c0-0.186,0.028-0.319,0.086-0.399c0.06-0.081,0.155-0.121,0.287-0.121c0.128,0,0.221,0.04,0.279,0.121
		c0.059,0.08,0.088,0.214,0.088,0.399v0.45h-0.74V28.25z M26.298,30.866c-0.07,0-0.139-0.016-0.203-0.048s-0.13-0.084-0.198-0.156
		v-2.77c0.058-0.062,0.114-0.106,0.174-0.135c0.058-0.03,0.117-0.045,0.177-0.045c0.113,0,0.2,0.039,0.26,0.117
		c0.061,0.079,0.09,0.192,0.09,0.343v2.294c0,0.143-0.024,0.244-0.073,0.308C26.476,30.836,26.4,30.866,26.298,30.866z
		 M28.248,22.779c-0.154,0.181-0.315,0.319-0.482,0.413c-0.167,0.095-0.329,0.142-0.486,0.142c-0.193,0-0.34-0.066-0.439-0.198
		c-0.099-0.132-0.146-0.331-0.146-0.595v-3.715h0.838v3.407c0,0.105,0.018,0.181,0.053,0.229c0.035,0.046,0.093,0.071,0.171,0.071
		c0.062,0,0.14-0.031,0.232-0.094c0.095-0.062,0.183-0.142,0.261-0.239v-3.374h0.837v4.444h-0.837V22.779z M24.76,23.382
		c-0.366,0-0.66-0.111-0.879-0.335c-0.221-0.224-0.331-0.525-0.331-0.902v-2.304c0-0.344,0.113-0.619,0.338-0.822
		c0.228-0.204,0.529-0.307,0.91-0.307c0.347,0,0.632,0.107,0.853,0.323c0.221,0.214,0.333,0.492,0.333,0.83v2.295
		c0,0.38-0.109,0.679-0.326,0.896C25.439,23.274,25.141,23.382,24.76,23.382z M25.127,19.808c0-0.098-0.034-0.175-0.102-0.234
		c-0.068-0.06-0.157-0.09-0.268-0.09c-0.103,0-0.187,0.031-0.25,0.09c-0.064,0.06-0.097,0.137-0.097,0.234v2.42
		c0,0.122,0.03,0.217,0.09,0.284s0.145,0.099,0.256,0.099c0.112,0,0.203-0.033,0.27-0.102c0.066-0.068,0.101-0.162,0.101-0.281
		V19.808L25.127,19.808z M22.494,23.27H21.55v-2.387l-1.124-3.638h0.95l0.612,2.409h0.06l0.584-2.409h0.96l-1.098,3.524V23.27z"/>
	<path fill="none" stroke="#FFFFFF" stroke-width="0.7017" stroke-miterlimit="10" d="M24.999,9.368
		C33.836,9.368,41,16.438,41,25.158c0,8.72-7.164,15.79-16.001,15.79C16.163,40.948,9,33.878,9,25.158
		C9,16.437,16.164,9.368,24.999,9.368z"/>
</g>
</svg>
